<?xml version="1.0" encoding="UTF-8" standalone="no"?>
<svg
   xmlns:dc="http://purl.org/dc/elements/1.1/"
   xmlns:cc="http://creativecommons.org/ns#"
   xmlns:rdf="http://www.w3.org/1999/02/22-rdf-syntax-ns#"
   xmlns:svg="http://www.w3.org/2000/svg"
   xmlns="http://www.w3.org/2000/svg"
   xmlns:sodipodi="http://sodipodi.sourceforge.net/DTD/sodipodi-0.dtd"
   xmlns:inkscape="http://www.inkscape.org/namespaces/inkscape"
   width="20px"
   height="20px"
   viewBox="0 0 20 20"
   version="1.1"
   id="svg10"
   sodipodi:docname="icon--warning.svg"
   inkscape:version="0.92.4 (5da689c313, 2019-01-14)">
  <metadata
     id="metadata14">
    <rdf:RDF>
      <cc:Work
         rdf:about="">
        <dc:format>image/svg+xml</dc:format>
        <dc:type
           rdf:resource="http://purl.org/dc/dcmitype/StillImage" />
      </cc:Work>
    </rdf:RDF>
  </metadata>
  <sodipodi:namedview
     pagecolor="#ffffff"
     bordercolor="#666666"
     borderopacity="1"
     objecttolerance="10"
     gridtolerance="10"
     guidetolerance="10"
     inkscape:pageopacity="0"
     inkscape:pageshadow="2"
     inkscape:window-width="2560"
     inkscape:window-height="1315"
     id="namedview12"
     showgrid="false"
     inkscape:zoom="5.9"
     inkscape:cx="117.90071"
     inkscape:cy="78.359563"
     inkscape:window-x="-13"
     inkscape:window-y="-13"
     inkscape:window-maximized="1"
     inkscape:current-layer="svg10" />
  <!-- Generator: Sketch 50.2 (55047) - http://www.bohemiancoding.com/sketch -->
  <title
     id="title2">help</title>
  <desc
     id="desc4">Created with Sketch.</desc>
  <defs
     id="defs6" />
  <g
     id="help"
     stroke="none"
     stroke-width="1"
     fill="none"
     fill-rule="evenodd"
     style="fill:#e64d00;fill-opacity:1">
    <path
       d="M 9.9990545,18 C 5.5816097,18 2,14.417346 2,10.000945 2,5.5826539 5.5816097,2 9.9990545,2 14.41839,2 18,5.5826539 18,10.000945 18,14.417346 14.41839,18 9.9990545,18 Z M 9.8532561,14.361527 c -0.5843281,0 -1.0476303,0.474536 -1.0476303,1.060616 0,0.570956 0.4633022,1.045493 1.0476303,1.045493 0.5862189,0 1.0608679,-0.474537 1.0608679,-1.045493 0,-0.58608 -0.474649,-1.060616 -1.0608679,-1.060616 z M 9.4258882,12.450782 c 0.8845478,1.164254 0.1711216,1.045087 1.0612188,-0.03297 1.278359,-1.542637 1.260265,-2.8367162 1.264496,-4.0694572 C 11.759783,5.9654581 10.714204,4.4715696 10.138677,4.4813965 9.4058183,4.4939098 8.4687155,5.8901727 8.3534753,8.2732959 8.2916594,9.5516233 8.1915045,10.859619 9.4258882,12.450782 Z"
       id="help-icon"
       style="fill:#e64d00;fill-opacity:1"
       inkscape:connector-curvature="0"
       sodipodi:nodetypes="ssssssssssccsssc" />
  </g>
</svg>
